<svg width="487" height="70" viewBox="0 0 487 70" fill="none" xmlns="http://www.w3.org/2000/svg">
<path d="M483.748 66.5341L331.232 66.8058C312.537 66.9352 292.679 66.9999 272.083 66.9999C221.951 66.9999 176.127 66.5858 141.08 65.9H0C0 40.9757 27.4269 51.9237 34.6588 56.3237C43.068 61.4353 32.2396 34.2206 49.4072 34.2206C64.1039 34.2206 72.5131 41.6098 72.5131 41.6098C72.5131 41.6098 72.9142 27.2454 86.8475 27.0383C100.781 26.8313 109.63 39.1122 120.627 49.2191C125.168 53.3861 130.627 56.699 135.789 59.2225C171.457 58.4719 219.376 58.006 272.083 58.006C297.051 58.006 320.934 58.1095 342.966 58.3036C382.114 58.3036 417.963 37.7146 428.131 32.5512C453.255 19.7655 441.353 50.2414 441.353 50.2414C441.353 50.2414 460.72 42.0886 474.343 42.1533C493.581 42.231 483.748 66.5341 483.748 66.5341Z" fill="#D0F0E4"/>
<path d="M404.611 65.7836C404.611 65.7836 408.467 31.076 383.369 19.908C383.369 19.908 379.668 57.6696 392.192 55.1979C396.888 54.2661 386.81 45.104 370.38 44.7157C370.38 44.7157 382.967 65.8742 398.259 66.1718" stroke="#FFCF2D" stroke-width="6" stroke-miterlimit="10"/>
<path d="M398.311 66.1201C398.311 66.1201 399.76 50.2415 415.233 45.2981C429.205 40.8464 404.754 65.7319 404.754 65.7319" stroke="#FFCF2D" stroke-width="6" stroke-miterlimit="10"/>
<path d="M50.8692 64.6706C50.8692 64.6706 28.6819 49.4651 22.4332 24.6573C22.4332 24.6573 42.0719 30.5325 50.4035 43.0334C50.4035 43.0334 53.8189 14.5763 62.0729 5C62.0729 5 66.5362 11.4187 67.0925 35.2041C67.0925 35.2041 77.2094 17.9668 84.7389 12.4022C84.7389 12.4022 83.7039 34.8289 78.322 46.2816C78.322 46.2816 86.0973 40.2252 91.3498 46.1651C96.6023 52.105 86.3043 60.8013 86.3043 60.8013" stroke="#FE5244" stroke-width="5" stroke-miterlimit="10"/>
<path d="M62.0859 5.84109C62.0859 5.84109 62.3059 57.6825 59.9513 64.3988" stroke="#FE5244" stroke-width="5" stroke-miterlimit="10"/>
<path d="M84.0145 13.7092C84.0145 13.7092 68.5416 53.4767 59.9513 64.3988" stroke="#FE5244" stroke-width="5" stroke-miterlimit="10"/>
<path d="M78.089 46.4627C77.5197 48.5462 73.5998 54.292 72.8235 51.8202C72.0602 49.3485 79.111 45.3497 80.8834 44.6898" stroke="#FE5244" stroke-width="5" stroke-miterlimit="10"/>
<path d="M50.4167 43.0464C51.4647 45.0652 55.0094 50.7334 51.4258 50.591C49.0842 50.5004 51.0507 38.6077 51.0507 38.6077" stroke="#FE5244" stroke-width="5" stroke-miterlimit="10"/>
</svg>
