<svg width="448" height="428" viewBox="0 0 448 428" fill="none" xmlns="http://www.w3.org/2000/svg">
<path opacity="0.1" fill-rule="evenodd" clip-rule="evenodd" d="M198.423 1.79817C248.825 -7.10297 300.098 18.3086 340.209 50.0987C379.248 81.0396 398.944 127.761 416.279 174.461C434.369 223.194 459.66 275.494 442.03 324.395C424.533 372.93 375.34 404.213 326.974 422.176C285.731 437.494 242.299 418.123 198.423 414.872C158.923 411.944 116.194 425.716 83.0073 404.096C49.2679 382.116 38.1995 339.625 24.6912 301.692C10.7724 262.606 -8.34127 221.686 3.93685 182.054C16.2734 142.234 58.3099 122.822 88.8852 94.4834C124.845 61.1549 150.14 10.3251 198.423 1.79817Z" fill="#FF046D"/>
</svg>
